HIERARCHY
ROOT Hips
{
	OFFSET 0.000000 0.000000 0.000000
	CHANNELS 6 Xposition Yposition Zposition Zrotation Yrotation Xrotation 
	JOINT LHipJoint
	{
		OFFSET 0.000000 0.000000 0.000000
		CHANNELS 3 Zrotation Yrotation Xrotation
		JOINT LeftUpLeg
		{
			OFFSET 1.363060 -1.794630 0.839290
			CHANNELS 3 Zrotation Yrotation Xrotation
			JOINT LeftLeg
			{
				OFFSET 2.448110 -6.726130 0.000000
				CHANNELS 3 Zrotation Yrotation Xrotation
				JOINT LeftFoot
				{
					OFFSET 2.562200 -7.039590 0.000000
					CHANNELS 3 Zrotation Yrotation Xrotation
					JOINT LeftToeBase
					{
						OFFSET 0.157640 -0.433110 2.322550
						CHANNELS 3 Zrotation Yrotation Xrotation
						End Site
						{
							OFFSET 0.000000 0.000000 0.000000
						}
					}
				}
			}
		}
	}
	JOINT RHipJoint
	{
		OFFSET 0.000000 0.000000 0.000000
		CHANNELS 3 Zrotation Yrotation Xrotation
		JOINT RightUpLeg
		{
			OFFSET -1.305520 -1.794630 0.839290
			CHANNELS 3 Zrotation Yrotation Xrotation
			JOINT RightLeg
			{
				OFFSET -2.542530 -6.985550 0.000000
				CHANNELS 3 Zrotation Yrotation Xrotation
				JOINT RightFoot
				{
					OFFSET -2.568260 -7.056230 0.000000
					CHANNELS 3 Zrotation Yrotation Xrotation
					JOINT RightToeBase
					{
						OFFSET -0.164730 -0.452590 2.363150
						CHANNELS 3 Zrotation Yrotation Xrotation
						End Site
						{
							OFFSET 0.000000 0.000000 0.000000
						}
					}
				}
			}
		}
	}
	JOINT LowerBack
	{
		OFFSET 0.000000 0.000000 0.000000
		CHANNELS 3 Zrotation Yrotation Xrotation
		JOINT Spine
		{
			OFFSET 0.028270 2.035590 -0.193380
			CHANNELS 3 Zrotation Yrotation Xrotation
			JOINT Spine1
			{
				OFFSET 0.056720 2.048850 -0.042750
				CHANNELS 3 Zrotation Yrotation Xrotation
				JOINT Neck
				{
					OFFSET 0.000000 0.000000 0.000000
					CHANNELS 3 Zrotation Yrotation Xrotation
					JOINT Neck1
					{
						OFFSET -0.054170 1.746240 0.172020
						CHANNELS 3 Zrotation Yrotation Xrotation
						JOINT Head
						{
							OFFSET 0.104070 1.761360 -0.123970
							CHANNELS 3 Zrotation Yrotation Xrotation
							End Site
							{
								OFFSET 0.000000 0.000000 0.000000
							}
						}
					}
				}
				JOINT LeftShoulder
				{
					OFFSET 0.000000 0.000000 0.000000
					CHANNELS 3 Zrotation Yrotation Xrotation
					JOINT LeftArm
					{
						OFFSET 3.362410 1.200890 -0.311210
						CHANNELS 3 Zrotation Yrotation Xrotation
						JOINT LeftForeArm
						{
							OFFSET 4.983000 -0.000000 -0.000000
							CHANNELS 3 Zrotation Yrotation Xrotation
							JOINT LeftHand
							{
								OFFSET 3.483560 -0.000000 -0.000000
								CHANNELS 3 Zrotation Yrotation Xrotation
								JOINT LeftFingerBase
								{
									OFFSET 0.000000 0.000000 0.000000
									CHANNELS 3 Zrotation Yrotation Xrotation
									JOINT LeftHandIndex1
									{
										OFFSET 0.715260 -0.000000 -0.000000
										CHANNELS 3 Zrotation Yrotation Xrotation
										End Site
										{
											OFFSET 0.000000 0.000000 0.000000
										}
									}
								}
								JOINT LThumb
								{
									OFFSET 0.000000 0.000000 0.000000
									CHANNELS 3 Zrotation Yrotation Xrotation
									End Site
									{
										OFFSET 0.000000 0.000000 0.000000
									}
								}
							}
						}
					}
				}
				JOINT RightShoulder
				{
					OFFSET 0.000000 0.000000 0.000000
					CHANNELS 3 Zrotation Yrotation Xrotation
					JOINT RightArm
					{
						OFFSET -3.136600 1.374050 -0.404650
						CHANNELS 3 Zrotation Yrotation Xrotation
						JOINT RightForeArm
						{
							OFFSET -5.241900 -0.000000 -0.000000
							CHANNELS 3 Zrotation Yrotation Xrotation
							JOINT RightHand
							{
								OFFSET -3.444170 -0.000000 -0.000000
								CHANNELS 3 Zrotation Yrotation Xrotation
								JOINT RightFingerBase
								{
									OFFSET 0.000000 0.000000 0.000000
									CHANNELS 3 Zrotation Yrotation Xrotation
									JOINT RightHandIndex1
									{
										OFFSET -0.622530 -0.000000 -0.000000
										CHANNELS 3 Zrotation Yrotation Xrotation
										End Site
										{
											OFFSET 0.000000 0.000000 0.000000
										}
									}
								}
								JOINT RThumb
								{
									OFFSET 0.000000 0.000000 0.000000
									CHANNELS 3 Zrotation Yrotation Xrotation
									End Site
									{
										OFFSET 0.000000 0.000000 0.000000
									}
								}
							}
						}
					}
				}
			}
		}
	}
}
MOTION
Frames: 8
Frame Time: 0.008333
9.639155 16.699128 -3.589686 6.061002 -45.490790 25.103555 9.807429 2.039068 -2.236115 -20.920176 -4.474420 -58.726496 6.239195 20.865701 54.927907 -0.689827 9.458327 -13.908310 0.221500 3.029500 8.360900 -13.263301 -3.193171 0.095284 18.865379 20.901227 -62.443204 -4.264286 -20.828546 49.503985 -0.237650 -5.436960 -14.584788 -0.010900 0.673400 -1.850400 -5.245726 -0.071476 42.414926 2.753340 -1.426645 2.675233 8.939514 -1.117013 -5.959597 -11.714692 0.620777 -23.457620 4.889990 2.340577 -8.136125 3.085200 1.543000 -2.121500 2.803371 -15.147886 2.287676 -48.569798 -46.340238 34.168058 24.173770 -22.687097 -7.242342 -2.614160 -0.006983 22.082443 10.464249 41.735588 8.740100 -7.125000 0.000000 0.000000 -35.967000 70.007500 -22.463200 -2.079890 14.048836 4.692602 46.544671 38.625341 60.596587 -28.755229 26.855086 -7.790945 -0.789774 -1.670995 -37.590687 -31.940666 24.057615 -14.149000 7.125000 0.000000 0.000000 -0.365200 -1.020400 -0.358600 
9.599681 16.686982 -3.556285 5.809326 -45.642297 25.335655 9.821520 2.027150 -2.257026 -20.847787 -4.655453 -59.081858 5.997478 20.787254 54.271403 -0.784811 10.078983 -14.074657 0.073800 1.752400 4.821700 -13.281291 -3.186924 0.097058 19.246711 20.893384 -62.412573 -4.324802 -20.877400 49.724436 -0.214287 -5.772351 -14.668085 -0.072200 1.733800 -4.770600 -5.263220 -0.052185 42.491834 2.862261 -1.364937 2.746241 9.223970 -1.125015 -5.900527 -11.618397 0.684047 -23.617318 4.552788 2.419646 -8.129198 2.889800 1.544500 -2.092900 2.837888 -15.201096 2.110321 -48.416824 -46.808786 35.363421 24.329761 -23.148569 -7.964519 -2.792679 -0.372908 16.803307 17.542141 48.162178 15.292900 -7.125000 0.000000 0.000000 -44.467700 76.915100 -34.471400 -2.029816 14.101650 4.757850 46.745711 38.612874 60.513517 -28.602814 26.707846 -7.720623 -0.806376 -1.666920 -37.659897 -31.629460 24.383417 -14.124900 7.125000 0.000000 0.000000 -0.120800 -0.763900 -0.119100 
9.561182 16.671800 -3.520714 5.261778 -45.729731 25.899118 9.868286 2.003342 -2.297075 -20.456156 -4.842285 -59.617000 5.797214 20.749774 53.719948 -0.859763 10.626628 -14.363575 0.002500 0.322600 0.886500 -13.308924 -3.196206 0.114376 19.827924 20.946427 -62.486000 -4.366984 -20.925033 49.908875 -0.219033 -5.893890 -14.860376 -0.111400 2.151800 -5.925300 -5.044102 -0.069798 42.341025 2.951625 -1.269222 2.830037 9.386629 -1.128923 -5.675452 -12.060841 0.581438 -24.039218 4.720640 2.411626 -8.003698 3.055000 1.575600 -1.979400 2.870266 -15.284692 2.057393 -49.038196 -48.696617 33.513608 23.310095 -21.301298 -7.105488 -2.921011 -0.171537 20.004827 10.713212 43.844285 9.454800 -7.125000 0.000000 0.000000 -39.959300 71.791700 -26.696700 -2.036643 14.119471 4.790503 46.351805 38.146637 60.010993 -28.950304 27.104873 -7.834627 -0.792227 -1.645230 -37.630752 -31.004080 23.741423 -13.466100 7.125000 0.000000 0.000000 0.127400 -1.657700 0.123600 
9.518346 16.662907 -3.481348 4.897978 -45.882921 26.317866 9.926398 1.971899 -2.340898 -20.166612 -4.961602 -60.121116 5.640205 20.714222 53.281540 -0.793787 10.402271 -14.765261 0.032500 1.164000 3.200200 -13.315770 -3.207032 0.131566 20.197062 21.041996 -62.483358 -4.400232 -20.956789 50.045166 -0.219368 -6.042026 -15.029064 -0.137900 2.393100 -6.593300 -4.814652 -0.106020 42.165804 2.860682 -1.272305 2.958205 9.022914 -1.171310 -5.330894 -11.930080 0.424785 -24.953002 5.011277 2.303675 -7.737920 3.171900 1.525700 -1.685300 2.884833 -15.382152 1.818707 -48.006083 -49.996548 32.253117 22.698459 -20.197460 -6.640964 -3.009142 -0.161247 21.395034 7.025697 41.662145 6.618200 -7.125000 0.000000 0.000000 -39.741600 69.189600 -24.366900 -2.068659 14.231401 4.868736 46.587149 38.063200 59.280680 -29.130159 27.262145 -7.880864 -0.780625 -1.639795 -37.197250 -30.759469 23.161180 -13.065000 7.125000 0.000000 0.000000 0.172000 -2.347200 0.164800 
9.482233 16.645881 -3.443067 4.360323 -45.905152 26.846545 9.988739 1.946818 -2.375582 -19.633317 -5.299871 -60.624938 5.501542 20.702182 52.881886 -0.796845 10.480772 -14.880026 0.136900 2.384700 6.570000 -13.325501 -3.210992 0.139393 20.763398 21.044241 -62.450996 -4.414661 -20.971203 50.131685 -0.265396 -5.846942 -15.381566 -0.099400 2.033600 -5.598500 -4.462341 -0.198899 42.114276 2.847696 -1.269133 3.080490 8.775005 -1.206340 -5.144556 -11.388774 0.487311 -25.379119 4.780892 2.332320 -7.736525 2.948900 1.480800 -1.596200 2.924100 -15.478408 1.494897 -46.560686 -50.831342 31.348524 22.368757 -19.686285 -6.518121 -3.099988 -0.266675 21.191524 5.370548 41.644572 5.529200 -7.125000 0.000000 0.000000 -41.672000 68.790900 -25.338300 -2.048547 14.370595 4.981914 46.646573 37.945130 58.713320 -29.304075 27.430888 -7.928873 -0.783447 -1.625300 -37.208706 -30.140350 23.022434 -12.666000 7.125000 0.000000 0.000000 0.517600 -2.677300 0.492900 
9.449591 16.638941 -3.406737 3.774081 -45.942934 27.248690 10.004130 1.929756 -2.385049 -18.977501 -5.748877 -60.899945 5.343784 20.666535 52.421694 -0.811739 10.665349 -15.104914 0.282300 3.417100 9.442400 -13.347207 -3.200461 0.134872 21.541946 20.912457 -62.216104 -4.416475 -20.954212 50.176594 -0.315205 -5.594975 -15.713894 -0.091900 1.954700 -5.380500 -4.322592 -0.175521 42.322213 3.089413 -1.097616 3.107959 9.433252 -1.168830 -5.252724 -12.173303 0.472827 -25.100066 4.518842 2.414104 -7.872969 2.966500 1.552000 -1.736100 2.984130 -15.553732 1.441561 -47.119802 -51.923306 30.496352 22.108401 -19.014827 -6.403632 -3.219772 -0.257052 21.992663 4.222776 41.339862 4.787100 -7.125000 0.000000 0.000000 -42.373700 68.321700 -25.394800 -2.001769 14.340152 5.020018 46.006795 37.234649 58.609174 -29.697992 27.949649 -8.128299 -0.784561 -1.592982 -37.679244 -29.781122 23.133278 -12.514400 7.125000 0.000000 0.000000 0.737400 -2.696000 0.702000 
9.403826 16.649785 -3.377782 3.552321 -46.464596 27.361754 10.005385 1.923387 -2.405481 -18.782041 -5.815881 -61.104722 5.188273 20.603672 51.982465 -0.819476 10.803737 -15.375792 0.317600 3.622600 10.017300 -13.362976 -3.185681 0.134802 21.884227 21.122232 -61.913950 -4.405852 -20.919915 50.154247 -0.320420 -5.643769 -15.823712 -0.159600 2.574400 -7.096000 -4.784919 0.135552 42.424541 3.189715 -0.843261 3.208758 9.910451 -1.104491 -5.163683 -12.545063 0.462003 -25.036909 4.337515 2.443663 -8.050609 2.939100 1.576300 -1.847600 3.025178 -15.612641 1.366555 -47.302034 -53.017065 29.196484 21.921159 -18.344396 -6.179593 -3.291812 -0.207120 23.911586 2.129142 39.781505 3.295600 -7.125000 0.000000 0.000000 -42.007400 66.695600 -23.660700 -1.974927 14.339700 5.069887 45.703970 36.744404 58.398816 -30.076395 28.415493 -8.321360 -0.768645 -1.572297 -38.044887 -29.768099 22.944276 -12.416300 7.125000 0.000000 0.000000 0.701600 -2.929600 0.664900 
9.370642 16.648918 -3.334186 3.800483 -46.537143 27.332166 10.031415 1.911605 -2.395777 -18.861246 -6.360769 -61.596394 5.005507 20.564126 51.505664 -0.868378 11.111081 -15.345211 0.172200 2.672800 7.369200 -13.363260 -3.167305 0.106392 21.836581 20.831949 -61.974156 -4.439064 -20.944302 50.245647 -0.379680 -5.202299 -16.063039 -0.110500 2.142900 -5.900800 -4.935014 0.084817 42.345115 3.189344 -0.956002 3.286224 9.965785 -1.183251 -5.045469 -12.134799 0.593040 -25.068201 4.042351 2.532758 -8.222004 2.704800 1.567100 -1.921500 3.057642 -15.675127 1.133773 -46.905320 -53.963170 27.516095 21.579948 -17.780728 -6.260528 -3.464564 0.047872 25.679650 4.659136 41.184712 5.239500 -7.125000 0.000000 0.000000 -41.376100 68.414600 -24.802100 -1.955328 14.432974 5.178394 45.573473 36.311817 58.193461 -30.422653 28.842914 -8.511834 -0.760365 -1.552759 -38.424512 -29.785742 22.981910 -12.436900 7.125000 0.000000 0.000000 0.684700 -2.910600 0.649100 
